<?xml version="1.0" encoding="UTF-8"?>
<svg width="168px" height="168px" viewBox="0 0 168 168" version="1.1" xmlns="http://www.w3.org/2000/svg" xmlns:xlink="http://www.w3.org/1999/xlink">
    <!-- Generator: Sketch 59 (86127) - https://sketch.com -->
    <title>noun-map-4781815</title>
    <desc>Created with Sketch.</desc>
    <g id="Page-1" stroke="none" stroke-width="1" fill="none" fill-rule="evenodd">
        <g id="Desktop-HD" transform="translate(-1366.000000, -1621.000000)" fill-rule="nonzero">
            <g id="Group" transform="translate(1207.000000, 1535.000000)">
                <g id="noun-map-4781815" transform="translate(159.000000, 86.000000)">
                    <path d="M0,156 C0,162.628114 5.37188571,168 12,168 L19.9995429,168 C22.2080229,168 24,166.208023 24,163.999543 L24,144 L12,144 C5.37188571,144 0,149.371886 0,156 Z" id="Path" fill="#B94042"></path>
                    <path d="M0,97.0006857 L0,141 C3.42775997,138.48882 7.68319505,137.000873 12.2998594,137.000873 L41,137.000873 L41,101.000499 C41,98.7919958 39.1632444,97 36.8995783,97 L0,97.0006857 Z" id="Path" fill="#FF5A00"></path>
                    <path d="M0,79.9993766 L99.9940312,79.9993766 C103.178056,79.9993766 106.230951,78.7364346 108.478409,76.4837377 C110.731457,74.2364237 111.996021,71.1842224 111.996021,67.999439 L111.996021,48 L119.99689,48 L119.99689,67.999439 C119.99689,74.6275188 125.369666,79.9993766 131.99888,79.9993766 L136,79.9993766 L136,88.0002493 L67.9864395,88.0002493 C64.8024145,88.0002493 61.7495198,89.2631914 59.5020616,91.5158882 C57.2490138,93.7632023 55.9844499,96.8154036 55.9844499,100.000187 L55.9844499,136 L47.9835807,136 L47.9835807,100.000187 C47.9835807,93.3721072 42.6108043,88.0002493 35.9815911,88.0002493 L0.0442050423,88.0002493 L0,79.9993766 L0,79.9993766 Z" id="Path" fill="#B94042"></path>
                    <path d="M136.002197,95 L67.9991639,95 C66.9397923,95 65.9192325,95.4310574 65.1718986,96.2011691 C64.419216,96.9685398 64,98.0131844 64,99.1004217 L64,136 L155.999868,136 C162.628055,136 168,130.49388 168,123.700141 C168,116.906401 162.628055,111.400281 155.999868,111.400281 L148.000237,111.400281 C141.37205,111.400281 136.000105,105.894161 136.000105,99.1004217 L136.002197,95 Z" id="Path" fill="#FF5A00"></path>
                    <path d="M168,108.997909 L168,28.9998763 C168,25.8150748 166.735714,22.7630263 164.484343,20.5156209 C162.23568,18.2629698 159.183429,17 156,17 L148.000457,17 C146.939726,17 145.920549,17.4192071 145.171886,18.1718736 C144.420549,18.9191916 144,19.9396954 144,20.9990788 L144,101.00054 C144,103.20766 145.791977,104.999584 148.000457,104.999584 L156,104.999584 C160.504114,104.999584 164.655771,106.4875 168,109 L168,108.997909 Z" id="Path" fill="#B94042"></path>
                    <path d="M91.0163109,48 C89.3315529,51.5718857 87.3061474,54.9603429 85.1053626,58.0834286 C81.0779124,63.8074286 76.5508227,68.6074286 73,72 L99.9331156,72 C101.010426,72 102.048268,71.5794514 102.808257,70.8281143 C103.573685,70.0794514 104,69.0602743 104,67.9995429 L104,48 L91.0163109,48 Z" id="Path" fill="#FF5A00"></path>
                    <path d="M28.4678861,48 L11.8749078,48 C8.72459655,48 5.70402714,49.2642857 3.4790087,51.5156571 C1.25114029,53.76432 0,56.8165714 0,60 L0,72 L46,72 C42.5447411,68.6076 38.1394896,63.8074286 34.2204307,58.0834286 C32.0787063,54.9602057 30.1079805,51.5718857 28.4685647,48 L28.4678861,48 Z" id="Path" fill="#FF5A00"></path>
                    <path d="M128,48 L128,67.9995429 C128,70.2080229 129.791772,72 132,72 L136,72 L136,48 L128,48 Z" id="Path" fill="#FF5A00"></path>
                    <path d="M60.0000751,0 C75.4509814,0 88,12.3734729 88,27.611257 C88,36.7978794 83.8912781,45.5896108 78.8393741,52.7923123 C71.5671695,63.1581978 62.4682567,70.1590586 62.4682567,70.1590586 L62.4642389,70.1630207 C61.0164835,71.2789931 58.9836193,71.2789931 57.5357611,70.1630207 L57.5317433,70.1590586 C57.5317433,70.1590586 48.4328305,63.1581978 41.1606259,52.7923123 C36.1090648,45.5892728 32,36.7975413 32,27.611257 C32,12.3734729 44.5490186,0 59.9999249,0 L60.0000751,0 Z M60.0000751,7.88835099 C48.9606278,7.88835099 40.0009124,16.7236963 40.0009124,27.611257 C40.0009124,38.4974654 48.9606278,47.3328106 60.0000751,47.3328106 C71.0395224,47.3328106 79.9992378,38.4974654 79.9992378,27.611257 C79.9992378,16.7236963 71.0395224,7.88835099 60.0000751,7.88835099 Z M60.0000751,15.7780543 C66.6239492,15.7780543 71.999847,21.0793291 71.999847,27.611257 C71.999847,34.1431849 66.6239492,39.4444597 60.0000751,39.4444597 C53.376201,39.4444597 48.0003032,34.1431849 48.0003032,27.611257 C48.0003032,21.0793291 53.376201,15.7780543 60.0000751,15.7780543 Z" id="Shape" fill="#B94042"></path>
                </g>
            </g>
        </g>
    </g>
</svg>