<?xml version="1.0" encoding="UTF-8"?>
<svg width="127px" height="158px" viewBox="0 0 127 158" version="1.1" xmlns="http://www.w3.org/2000/svg" xmlns:xlink="http://www.w3.org/1999/xlink">
    <!-- Generator: Sketch 59 (86127) - https://sketch.com -->
    <title>Shape</title>
    <desc>Created with Sketch.</desc>
    <g id="Page-1" stroke="none" stroke-width="1" fill="none" fill-rule="evenodd">
        <g id="Desktop-HD" transform="translate(-851.000000, -1607.000000)" fill="#B94042" fill-rule="nonzero">
            <g id="Group" transform="translate(675.000000, 1535.000000)">
                <path d="M303,72 L213.608064,72 C201.63527,72 190.922458,77.6275415 184.023975,86.3475138 L290.668145,86.3475138 L290.668145,96.3801157 L178.348116,96.3801157 C176.832445,100.414935 176,104.775722 176,109.318954 L176,230 L303,230 L303,72 L303,72 Z M209.668834,163 L221.331166,163 L221.331166,169.203056 C222.080075,169.452299 222.808869,169.75074 223.509184,170.088535 L227.994234,165.702277 L236.239058,173.771665 L231.754008,178.16128 C232.102493,178.846694 232.405728,179.55998 232.662084,180.292954 L239,180.292954 L239,191.70713 L232.662084,191.70713 C232.407422,192.440104 232.102493,193.15339 231.754008,193.838804 L236.239058,198.228419 L227.994234,206.297807 L223.509184,201.908191 C222.808869,202.24926 222.080075,202.546043 221.331166,202.796944 L221.331166,209 L209.668834,209 L209.668834,202.796944 C208.919925,202.547701 208.191131,202.24926 207.487471,201.908191 L203.005851,206.297807 L194.761027,198.228419 L199.242647,193.838804 C198.895839,193.150116 198.592599,192.440104 198.337916,191.703856 L192,191.703856 L192,180.292618 L198.337916,180.292618 C198.592578,179.559644 198.897507,178.846358 199.242647,178.160945 L194.761027,173.771329 L203.005851,165.701941 L207.490902,170.088199 C208.191216,169.748771 208.92001,169.451984 209.66892,169.20272 L209.668834,163 Z M215.498276,176 C221.299717,176 226,180.700283 226,186.498276 C226,192.299717 221.299717,197 215.498276,197 C209.700283,197 205,192.299717 205,186.498276 C205,180.700283 209.700283,176 215.498276,176 Z M249.558381,115 L264.44457,115 L264.44457,123.09119 C265.40303,123.417215 266.331894,123.804159 267.227789,124.248742 L272.952241,118.525263 L283.475739,129.050344 L277.752973,134.772137 C278.195988,135.669524 278.584659,136.598187 278.907434,137.558171 L287,137.558171 L287,152.441829 L278.907434,152.441829 C278.58465,153.400126 278.195988,154.328832 277.752973,155.227863 L283.475739,160.949656 L272.952241,171.474737 L267.227789,165.751258 C266.331894,166.194197 265.401428,166.582802 264.44457,166.90881 L264.44457,175 L249.557116,175 L249.557116,166.90881 C248.6003,166.582785 247.669792,166.195841 246.773897,165.751258 L241.049445,171.474737 L230.522574,160.949656 L236.247027,155.227863 C235.804012,154.330476 235.418672,153.401813 235.092566,152.441829 L227,152.441829 L227,137.558171 L235.092566,137.558171 C235.418646,136.599874 235.805656,135.671168 236.247027,134.772137 L230.522574,129.050344 L241.049445,118.525263 L246.773897,124.248742 C247.671436,123.805803 248.600258,123.417198 249.560404,123.09119 L249.560404,115 L249.558381,115 Z M256.497653,132 C263.955345,132 270,138.044942 270,145.5 C270,152.956765 263.955345,159 256.497653,159 C249.041242,159 243,152.955058 243,145.5 C243,138.043235 249.041242,132 256.497653,132 Z" id="Shape"></path>
            </g>
        </g>
    </g>
</svg>