<?xml version="1.0" encoding="UTF-8"?>
<svg width="179px" height="166px" viewBox="0 0 179 166" version="1.1" xmlns="http://www.w3.org/2000/svg" xmlns:xlink="http://www.w3.org/1999/xlink">
    <!-- Generator: Sketch 59 (86127) - https://sketch.com -->
    <title>Group</title>
    <desc>Created with Sketch.</desc>
    <g id="Page-1" stroke="none" stroke-width="1" fill="none" fill-rule="evenodd">
        <g id="Desktop-HD" transform="translate(-1887.000000, -1614.000000)" fill-rule="nonzero">
            <g id="Group" transform="translate(1739.000000, 1535.000000)">
                <g transform="translate(148.000000, 79.000000)">
                    <path d="M12.0622792,30.6820298 C12.0598531,31.4901984 12.5696079,32.1544835 13.2122914,32.1820298 L16.0256941,32.1820298 L16.0342307,31.2743733 C16.0464257,30.6070318 16.0561817,30.0391783 16.0622792,29.1820298 L13.2122873,29.1820298 C12.5696039,29.2095808 12.0598528,29.8738613 12.0622792,30.6820298 L12.0622792,30.6820298 Z" id="Path" fill="#FF5A00"></path>
                    <path d="M136.062279,86.804918 C135.044187,79.6181917 132.060046,72.8551941 127.442787,67.2719039 C122.824175,61.6886136 116.754143,57.5026762 109.90763,55.1820298 C113.198607,65.4042324 111.424207,76.5891768 105.133315,85.2769777 C98.8422531,93.9647787 88.7946976,99.1029157 78.1023302,99.1029157 C67.4096244,99.1029157 57.3624074,93.9647787 51.0713459,85.2769777 C44.7802845,76.5891768 43.005952,65.4038923 46.2970308,55.1820298 C38.879495,57.7139625 32.3873742,62.4245279 27.6631546,68.7025837 C22.9389351,74.9819999 20.1978926,82.5404242 19.7961123,90.402192 L19.0622792,105.18203 L105.988325,105.18203 C112.781696,94.8550853 123.810178,88.1145325 136.062279,86.804918 L136.062279,86.804918 Z" id="Path" fill="#FF5A00"></path>
                    <path d="M78.0622792,95.1820298 C85.7540974,95.1820298 93.1296418,92.127821 98.5689407,86.6886914 C104.006885,81.2507469 107.062279,73.873848 107.062279,66.1820298 C107.062279,58.4915662 104.00675,51.1146672 98.5689407,45.6767228 C93.1299804,40.2377625 85.7540974,37.1820298 78.0622792,37.1820298 C70.3718155,37.1820298 62.9949166,40.2375593 57.5569722,45.6767228 C52.1180118,51.1146672 49.0622792,58.4915662 49.0622792,66.1820298 C49.0715385,73.871139 52.1297282,81.2429586 57.566115,86.6792099 C63.0027049,92.1157999 70.3741859,95.1739029 78.0619406,95.1820298 L78.0622792,95.1820298 Z M78.0622792,46.6133536 L78.0622792,46.6146766 C83.2526903,46.6146766 88.2287532,48.6755015 91.899425,52.3462071 C95.5687422,56.0155243 97.6309554,60.9929417 97.6309554,66.1819983 C97.6309554,71.371055 95.5688099,76.3484723 91.899425,80.0177896 C88.2287532,83.6884614 83.2526903,85.7493201 78.0622792,85.7493201 C72.8732226,85.7493201 67.8958052,83.6884952 64.2264879,80.0177896 C60.5571707,76.3484723 58.4949575,71.371055 58.4949575,66.1819983 C58.5002488,60.9942962 60.5637399,56.0206037 64.2329218,52.3512864 C67.9008845,48.6833236 72.874577,46.619756 78.0622792,46.6146766 L78.0622792,46.6133536 Z" id="Shape" fill="#FF5A00"></path>
                    <path d="M118.167768,28.1538841 L136.059114,28.1538841 L136.059114,23.8569215 C136.119804,21.5406803 135.305775,19.2859488 133.778021,17.5355705 C130.962615,14.2393656 127.144378,11.5982362 121.354084,8.97417787 C111.567258,4.50818093 100.88372,1.86031025 87.6971558,0.64185374 C72.0659962,-0.784843798 56.3091957,1.11743077 41.4768022,6.22300838 C36.1941383,8.07417015 29.4341794,10.8070611 24.0485034,15.5101758 C23.8110284,15.7171726 23.5577266,15.9700232 23.309687,16.2150226 C20.975804,18.5326053 19.9757759,20.9523466 20.0681153,24.0533234 C20.1499137,25.0686368 20.1894939,26.0656381 20.210603,27.0469098 C20.2145607,27.0980024 20.2185187,27.1490985 20.2185187,27.2001911 C20.2185187,27.2172224 20.2185187,27.2329436 20.2158802,27.2499758 C20.2409473,28.6177125 20.2264348,29.9500996 20.1960904,31.2209433 L20.1855359,31.9939069 C20.1697041,33.1192939 20.1538724,34.18572 20.1894939,35.2560702 L20.1894939,35.2573805 C20.2013677,35.3556385 20.2053257,35.4538965 20.2000485,35.5521545 C20.2739301,37.9784693 21.1657955,38.7920481 23.5960708,38.7920481 L43.4226942,38.7920481 C43.4569956,38.7920481 43.4912969,38.8274212 43.5256017,38.8287326 C43.9820973,38.8470738 45.0335639,38.8483842 45.6615663,38.2247699 C46.2816317,37.6090351 46.2895687,36.4338769 46.2895687,35.7774934 L46.2895687,32.5559454 L30.9735249,32.5559454 C29.7492005,32.5559454 28.7570757,31.5707497 28.7570757,30.3549763 C28.7570757,29.1392028 29.7492005,28.1540071 30.9735249,28.1540071 L46.2919329,28.1540071 L46.2919329,23.607853 C46.2457564,21.5536151 47.0479067,19.5714852 48.5110165,18.1199356 C49.3936445,17.2683576 50.466254,16.6342772 51.6404232,16.2713898 C51.7552023,16.2347087 51.9042862,16.2006436 52.0335917,16.1705125 L52.0652553,16.1652721 C52.1127489,16.1508612 52.1655249,16.1377601 52.2130186,16.1272796 C52.9557866,15.954348 53.8252088,15.6674322 54.7421517,15.3648136 L54.7421517,15.3635032 C55.930844,14.950811 57.140679,14.5970797 58.3651385,14.3075747 C67.9658675,12.1603343 78.1164449,11.6782173 89.3913741,12.8350299 C89.4415089,12.8376499 89.4929609,12.8415803 89.535179,12.8468207 C95.9773202,13.6066707 100.856379,14.7739809 105.353787,16.6289661 C105.40128,16.6486173 105.447457,16.6695779 105.492316,16.6918509 L105.707365,16.7979703 L105.740348,16.8150015 C106.799751,17.3613114 109.99897,19.0133547 110.068883,23.5790618 L110.068883,23.5803718 C110.082076,23.7257917 110.082076,23.872523 110.068883,24.0179496 C110.068883,24.02188 110.010831,24.0258101 110.010831,24.0310505 C109.857793,26.8267927 109.831405,29.5152786 109.831405,32.6920527 L109.831405,32.7562489 C109.831405,33.4139068 109.881539,34.0715983 109.885498,34.7344883 C109.888137,35.0803381 109.918481,35.4616047 109.918481,35.8113785 C109.918481,38.3818086 110.694247,39.1586962 113.28539,39.1586962 L123.068163,39.1586962 C123.680325,39.1586962 124.254221,39.1390446 124.822848,39.142975 C125.400695,39.1469054 125.974625,39.1351145 126.543251,39.142975 C128.907464,39.1796595 130.88631,39.2084792 132.865493,39.142975 C132.89056,39.142975 132.915628,39.1573862 132.939375,39.1573862 L133.046241,39.1573862 C133.771851,39.1573862 134.713855,39.0106549 135.302274,38.4237298 C135.787782,37.9429207 136.058247,37.0717227 136.058247,35.9515677 L136.058247,32.5557868 L118.166901,32.5557868 C116.942576,32.5557868 115.950452,31.5705911 115.950452,30.3548176 C115.950452,29.1390442 116.942576,28.1538485 118.166901,28.1538485 L118.167768,28.1538841 Z" id="Path" fill="#FF5A00"></path>
                    <path d="M78.0616075,81.1820298 C82.0408292,81.1820298 85.8558173,79.601085 88.6686112,76.7881652 C91.4814051,73.9752454 93.0622792,70.1600866 93.0622792,66.1820298 C93.0609673,62.2026305 91.4814051,58.3874716 88.6686112,55.5745518 C85.8558173,52.7616321 82.0394858,51.1806872 78.0616075,51.1820298 C74.0837292,51.1820298 70.2687411,52.7616657 67.4559472,55.5745518 C64.6418435,58.3887815 63.0622792,62.203974 63.0622792,66.1820298 C63.0662151,70.1587431 64.6484263,73.971215 67.4613209,76.7841348 C70.2728049,79.5957446 74.0854085,81.1779994 78.0616075,81.1820298 L78.0616075,81.1820298 Z" id="Path" fill="#FF5A00"></path>
                    <path d="M18.0622792,126.18203 L99.6994772,126.18203 C99.837971,123.732675 100.188203,121.300077 100.748826,118.909303 L77.5578886,118.909303 C76.3220977,118.909303 75.320681,117.932679 75.320681,116.727484 C75.320681,115.52229 76.3220977,114.545666 77.5578886,114.545666 L102.066093,114.545666 C102.650682,113.057342 103.317873,111.600203 104.062279,110.18203 L18.886458,110.18203 L18.0622792,126.18203 Z M66.5802815,114.545666 L66.6974686,114.545666 C67.9332595,114.545666 68.9346762,115.52229 68.9346762,116.727484 C68.9346762,117.932679 67.9332595,118.909303 66.6974686,118.909303 L66.5802815,118.909303 C65.3444906,118.909303 64.3430739,117.932679 64.3430739,116.727484 C64.3430739,115.52229 65.3444906,114.545666 66.5802815,114.545666 Z" id="Shape" fill="#FF5A00"></path>
                    <path d="M141.070802,91.1820298 C128.756672,91.1833489 117.249976,97.3065525 110.373448,107.517804 C103.495568,117.730406 102.148831,130.692814 106.778661,142.098855 C111.408827,153.506247 121.411757,161.863363 133.462145,164.395413 C143.716997,166.543705 154.403426,164.245073 162.866794,158.070689 C171.331513,151.897551 176.780934,142.424646 177.863929,132.006441 C178.946924,121.586887 175.560732,111.197379 168.546862,103.415208 C161.53289,95.6330362 151.548534,91.1874315 141.070802,91.1820298 L141.070802,91.1820298 Z M159.280112,118.654773 L137.09104,140.840595 C136.225691,141.705712 134.82347,141.705712 133.956804,140.840595 L122.861762,129.748528 C122.446225,129.333103 122.212741,128.770009 122.212741,128.181831 C122.212741,127.593652 122.446228,127.030524 122.861762,126.615133 C123.727111,125.750016 125.130682,125.750016 125.995997,126.615133 L135.525475,136.142056 L156.147295,115.525767 C157.012644,114.66065 158.416215,114.66065 159.28153,115.525767 C160.146846,116.390884 160.14688,117.794078 159.28153,118.659162 L159.280112,118.654773 Z" id="Shape" fill="#B94042"></path>
                    <path d="M4.59533325,105.437629 L4.59533325,37.3802138 C4.64930114,34.7490752 6.83231537,32.643804 9.50649786,32.645164 L9.50649786,28.1820298 C7.0118169,28.1585592 4.61018521,29.1175078 2.83623898,30.8454643 C1.06339802,32.5720948 0.0636535911,34.9270051 0.062279198,37.3829339 L0.062279198,105.440349 C0.0542111959,109.881625 1.84322975,114.144054 5.03287902,117.285113 C8.22239013,120.426274 12.550736,122.188811 17.0622792,122.18203 L17.0622792,117.719313 C13.7594441,117.702046 10.5968393,116.40308 8.26266313,114.102572 C5.92855608,111.803492 4.61046153,108.688853 4.59560957,105.437629 L4.59533325,105.437629 Z" id="Path" fill="#FF5A00"></path>
                </g>
            </g>
        </g>
    </g>
</svg>