<?xml version="1.0" encoding="UTF-8"?>
<svg width="215px" height="118px" viewBox="0 0 215 118" version="1.1" xmlns="http://www.w3.org/2000/svg" xmlns:xlink="http://www.w3.org/1999/xlink">
    <!-- Generator: Sketch 59 (86127) - https://sketch.com -->
    <title>Shape</title>
    <desc>Created with Sketch.</desc>
    <g id="Page-1" stroke="none" stroke-width="1" fill="none" fill-rule="evenodd">
        <g id="Desktop-HD" transform="translate(-2403.000000, -1651.000000)" fill="#FF5A00" fill-rule="nonzero">
            <g id="Group" transform="translate(2271.000000, 1535.000000)">
                <path d="M306.487102,116 C310.334346,116 313.276903,119.176899 313.276903,122.807959 L313.276903,122.807959 L313.276903,129.161677 L340.208582,129.161677 C344.055864,129.163259 347,132.340159 347,135.971219 L347,135.971219 L347,213.804256 C347,217.661789 343.831574,220.612215 340.210199,220.612215 L340.210199,220.612215 L313.278519,220.612215 L313.278519,227.192041 C313.278519,231.049574 310.110094,234 306.488718,234 L306.488718,234 L172.511282,234 C168.664038,234 165.721481,230.823101 165.721481,227.192041 L165.721481,227.192041 L165.721481,220.838323 L138.789801,220.838323 C134.942557,220.838323 132,217.661424 132,214.030364 L132,214.030364 L132,136.197327 C132,132.339794 135.168426,129.389368 138.789801,129.389368 L138.789801,129.389368 L165.719864,129.387785 L165.719864,122.807959 C165.719864,118.950426 168.88829,116 172.509665,116 L172.509665,116 Z M165.946581,142.777231 L145.579198,142.777231 L145.579198,207.222078 L165.946581,207.222078 L165.946581,142.777231 Z M333.419185,142.777231 L313.051802,142.777231 L313.051802,207.222078 L333.419185,207.222078 L333.419185,142.777231 Z M299.698513,129.615959 L179.2991,129.615149 L179.300679,201.094469 L200.347002,184.529825 C205.326297,180.446103 212.567512,180.446103 217.546404,184.529825 L217.546404,184.529825 L229.315096,193.833888 L255.567836,165.695592 C260.772232,160.02263 270.730418,160.02263 275.935219,165.695592 L275.935219,165.695592 L299.698513,191.337785 L299.698513,129.615959 Z M213.500812,144 C220.403633,144 226,149.596367 226,156.499188 C226,163.403633 220.403633,169 213.500812,169 C206.596367,169 201,163.403633 201,156.499188 C201,149.596367 206.596367,144 213.500812,144 Z M205.668834,187 L217.331166,187 L217.331166,193.203056 C218.080075,193.452299 218.808869,193.75074 219.509184,194.088535 L223.994234,189.702277 L232.239058,197.771665 L227.754008,202.16128 C228.102493,202.846694 228.405728,203.55998 228.662084,204.292954 L235,204.292954 L235,215.70713 L228.662084,215.70713 C228.407422,216.440104 228.102493,217.15339 227.754008,217.838804 L232.239058,222.228419 L223.994234,230.297807 L219.509184,225.908191 C218.808869,226.24926 218.080075,226.546043 217.331166,226.796944 L217.331166,233 L205.668834,233 L205.668834,226.796944 C204.919925,226.547701 204.191131,226.24926 203.487471,225.908191 L199.005851,230.297807 L190.761027,222.228419 L195.242647,217.838804 C194.895839,217.150116 194.592599,216.440104 194.337916,215.703856 L188,215.703856 L188,204.292618 L194.337916,204.292618 C194.592578,203.559644 194.897507,202.846358 195.242647,202.160945 L190.761027,197.771329 L199.005851,189.701941 L203.490902,194.088199 C204.191216,193.748771 204.92001,193.451984 205.66892,193.20272 L205.668834,187 Z M211.498276,200 C217.299717,200 222,204.700283 222,210.498276 C222,216.299717 217.299717,221 211.498276,221 C205.700283,221 201,216.299717 201,210.498276 C201,204.700283 205.700283,200 211.498276,200 Z" id="Shape"></path>
            </g>
        </g>
    </g>
</svg>