<?xml version="1.0" encoding="UTF-8"?>
<svg width="213px" height="128px" viewBox="0 0 213 128" version="1.1" xmlns="http://www.w3.org/2000/svg" xmlns:xlink="http://www.w3.org/1999/xlink">
    <!-- Generator: Sketch 59 (86127) - https://sketch.com -->
    <title>noun-handshake-15058</title>
    <desc>Created with Sketch.</desc>
    <g id="Page-1" stroke="none" stroke-width="1" fill="none" fill-rule="evenodd">
        <g id="Desktop-HD" transform="translate(-268.000000, -1626.000000)" fill-rule="nonzero">
            <g id="Group" transform="translate(143.000000, 1535.000000)">
                <g id="noun-handshake-15058" transform="translate(125.000000, 90.000000)">
                    <path d="M212.958261,63.8382051 C213.001509,63.9246305 213.001509,64.0140685 213.041739,64.1125519 L212.958261,64.1617949 L212.958261,63.8382051 Z" id="Path" fill="#000000"></path>
                    <polygon id="Path" fill="#000000" points="194.027658 0.956787277 194.027658 1.04321272 193.972342 0.956787277"></polygon>
                    <path d="M173.021575,82.4312825 C172.684282,78.2173878 176.348523,75.2795352 180.739721,73.2299352 C180.934999,73.1391444 181.083296,73.0453954 181.266044,73 C185.320938,78.1986526 181.856046,86.2601263 175.100831,88 C175.102919,88 173.145964,83.9045895 173.021708,82.4312421 L173.021575,82.4312825 Z" id="Path" fill="#B94042"></path>
                    <path d="M160.983969,102.405679 C156.905311,100.250617 151.596388,91.503558 151.042112,86.6045811 C150.830038,84.6677805 151.372556,81.449897 153.735966,79.5728914 C161.927121,73.068208 166.035325,80.5301304 167.72012,84.0443901 C167.72012,84.0443901 171.946754,92.0240678 171.999025,94.9587244 C172.092732,99.586662 165.41085,104.778767 160.983969,102.405419 L160.983969,102.405679 Z" id="Path" fill="#B94042"></path>
                    <path d="M146,83 C145.653845,83.7848087 145.361548,84.4472313 145,85 C145,84.4080146 145.361548,83.7235337 146,83 Z" id="Path" fill="#000000"></path>
                    <path d="M145,85 C144.47791,84.9073959 143.787306,84.4831439 143,84.0071952 C144.065887,83.9210525 144.758754,84.6295727 145,85 Z" id="Path" fill="#000000"></path>
                    <path d="M142.650728,35.4925268 C136.485275,51.0412494 107.160696,19.7515967 99.6240833,23.2370994 C94.3886085,25.8839481 53.84328,61.3230702 49.6013614,64.9069956 C28.6133882,82.6475551 31.624687,89.4402661 30.3618926,89.7682558 C30.5901325,89.7098824 24.9132923,91.3050925 10.2668329,86.8586031 C6.60405977,85.6931445 3.06380806,84.6786437 0,84.2578739 C1.62783625,79.0425023 3.48697033,73.8943777 5.62157171,68.6751414 C11.9811034,53.0249044 18.4402481,34.7425048 25.643273,18.4795737 C27.3515461,19.2152961 29.1302433,20.1029811 30.8908454,20.9896613 C43.6008999,27.1792112 59.4002448,34.8876138 71.5133934,20.8940496 C78.4752363,12.9913781 91.6457757,2.44494973 102.599346,1.0448742 C112.027577,-0.304779031 146.848632,29.1906694 142.650471,35.4928128 L142.650728,35.4925268 Z" id="Path" fill="#B94042"></path>
                    <path d="M135.596141,92.486731 C139.112843,89.4438741 142.673859,89.7051593 144.858213,90.5976828 C151.008484,93.0997127 156.813732,103.899124 156.813732,103.899124 C158.30469,111.444343 150.562434,117.08441 143.683605,114.258735 C140.455478,112.935591 135.530197,107.513783 133.95992,104.467849 C132.570966,101.776535 132.355616,94.8833751 135.596168,92.4864233 L135.596141,92.486731 Z" id="Path" fill="#B94042"></path>
                    <path d="M141.634437,119.321719 C143.968297,125.429921 134.729449,131.693017 125.239342,127.7895 C125.239342,127.7895 125.165664,127.795685 125.140759,127.7895 C124.936327,127.688485 124.860569,127.314312 124.7101,126.930874 C124.28255,125.835181 122.43333,123.571732 122.43333,121.890315 C120.865336,117.267207 123.877846,113.47399 126.281123,111.374329 C130.378104,106.56387 140.215692,115.638565 141.634307,119.321482 L141.634437,119.321719 Z" id="Path" fill="#B94042"></path>
                    <path d="M121.690844,107.166703 C117.558469,110.886797 117.734523,113.109696 117.824094,117.573243 C117.824094,118.539938 118.657596,121.959615 118.794321,122.839925 C100.117684,134.2554 100.345731,118.583207 100.818296,118.34808 C121.805511,98.4212275 125.190687,86.8863886 125.190687,86.8863886 C123.556861,87.5868036 104.413501,110.236984 95.9204472,114.502191 C87.5594336,118.781032 83.4702998,117.72785 80.4459829,115.919073 C79.0534587,115.08602 78.2069074,113.372708 77.977677,110.865394 C91.7248059,106.111412 113.762424,78.8428971 114.112473,74.6471474 C114.112473,74.6471474 87.8768453,103.31253 74.3587923,106.7674 C72.0422942,107.570303 69.9018501,107.931045 68.0427317,107.931045 C64.7499584,107.931045 62.4213631,107.193457 61.2077755,105.711259 C59.7247792,103.847199 59.4040472,100.54722 60.3340697,95.8693833 C78.4308098,85.0185725 98.9552398,63.3452485 96.6207246,61.7117101 L77.1526176,78.0301153 C68.1028319,84.7597789 49.5245176,96.7159935 49.0457747,95.9712544 C46.0284073,97.085662 43.8689164,96.5671486 40.3298221,94.2428422 C39.3163542,93.5886551 38.6708749,92.8008265 38.3380714,91.8351352 C29.8069239,82.6857768 63.3902255,65.2071735 101.516695,28.8474391 C107.814738,30.9466517 123.55457,45.9777257 136.498389,45.6278655 C141.85439,45.4801474 150.808684,40.3300562 150.838799,35.1408064 C150.934313,27.5249161 132.958265,11.9731163 124.603172,5.42584307 C131.197727,5.00881487 145.584466,6.94724611 153.250531,7.50694523 C159.239965,7.97020128 165.274442,8.39324913 171.174306,8.39324913 C180.137609,8.39324913 187.003709,6.76634781 193.978427,3 C200.112514,17.2863864 210.225057,61.897419 208.877885,61.8485414 C199.27214,61.7108715 186.120094,61.5229657 177.167601,66.0329722 C172.710659,68.2125754 169.65005,71.3667965 168.022324,75.4457547 C162.0733,70.305897 155.439364,69.5590998 150.052476,73.5937595 C147.723907,75.3563346 146.849274,79.1719715 146.191646,82.2306756 C145.690948,83.2526533 145.407409,84.2183445 145.407409,85.0552821 L145.407409,85.0984924 C145.407409,85.2030003 145.407409,85.2401807 145.358142,85.3396644 C145.033395,85.1638108 144.104376,84.8362259 142.673578,84.8764084 L142.572031,84.8764084 L142.476516,84.8764084 C139.609979,84.3639147 135.610416,83.9006586 132.166813,86.4972901 C128.003294,89.698768 128.274839,95.0668066 129.674364,99.5738291 C129.945832,101.188665 130.078542,102.574395 130.637564,104.213335 C128.731292,104.478612 122.953225,106.058308 121.692278,107.166567 L121.690844,107.166703 Z" id="Path" fill="#FF5A00"></path>
                </g>
            </g>
        </g>
    </g>
</svg>